<svg width="832" height="496" viewBox="0 0 832 496" fill="none" xmlns="http://www.w3.org/2000/svg">
<path d="M79.7493 168.4C-36.7578 200.83 0.441571 304.614 33.6046 352.452C51.3861 348.093 100.367 363.371 154.039 459.352C207.711 555.333 335.89 437.667 393.271 366.836C423.489 421.539 516.193 520.485 645.267 478.64C774.341 436.795 822.536 331.747 830.5 284.454C802.355 272.249 746.785 227.898 749.665 148.132C752.545 68.3649 661.63 73.9224 615.813 86.672C552.65 95.6076 407.998 96.8063 334.69 30.1162C261.383 -36.5739 206.838 24.7767 188.729 63.7882C200.947 85.1465 196.256 135.97 79.7493 168.4Z" stroke="black"/>
</svg>
