<svg width="530" height="316" viewBox="0 0 530 316" fill="none" xmlns="http://www.w3.org/2000/svg">
<path d="M50.914 107.346C-23.2013 127.983 0.462831 194.027 21.5593 224.469C32.8709 221.695 64.0299 231.418 98.173 292.497C132.316 353.576 213.857 278.697 250.359 233.623C269.582 268.434 328.555 331.399 410.665 304.771C492.775 278.142 523.434 211.294 528.5 181.198C510.596 173.431 475.245 145.208 477.077 94.4473C478.909 43.6868 421.074 47.2234 391.928 55.3367C351.747 61.023 259.728 61.7858 213.093 19.3467C166.459 -23.0924 131.761 15.9488 120.241 40.7743C128.013 54.3659 125.029 86.7084 50.914 107.346Z" stroke="black"/>
</svg>
